<svg width="136" height="27.25" viewBox="0 0 113 24" fill="none" xmlns="http://www.w3.org/2000/svg">
<g clip-path="url(#clip0_602_14267)">
<path d="M97.895 1.37099H108.656V3.73473H100.504V8.93458H107.414V11.223H100.504V18.7857H97.895V1.37099Z" fill="black"/>
<path d="M110.391 1.37099H113V18.7857H110.391V1.37099Z" fill="black"/>
<path d="M87.7577 1.37099H85.2607V3.87049H87.7577V1.37099Z" fill="#4D4DCB"/>
<path d="M90.2547 3.87048H87.7578V6.36998H90.2547V3.87048Z" fill="#4D4DCB"/>
<path d="M92.7516 8.86948V6.36998H90.2547V8.86948H77.7607V11.369H80.2577H82.7546H85.2515H87.7475H87.7512H90.2417V13.849H87.7512V16.3485H90.2482V13.8555H92.7386V11.369H92.7516H95.2225V8.86948H92.7516Z" fill="#4D4DCB"/>
<path d="M87.7484 16.3512H85.2515V18.8507H87.7484V16.3512Z" fill="#4D4DCB"/>
<path d="M3.71567 18.437C2.63069 17.9562 1.7733 17.2802 1.1435 16.4098C0.513691 15.5395 0.132835 14.5399 0 13.4119H2.75888C2.97439 14.5231 3.48808 15.386 4.29996 15.9988C5.11183 16.6125 6.18845 16.9194 7.53073 16.9194C8.37605 16.9194 9.11268 16.7948 9.74248 16.5465C10.3723 16.2973 10.8609 15.9533 11.2083 15.5144C11.5567 15.0755 11.7304 14.5817 11.7304 14.034C11.7304 13.3543 11.4647 12.8112 10.9352 12.4049C10.4048 11.9985 9.46845 11.6377 8.1271 11.3225L5.91534 10.7999C4.05937 10.3517 2.70129 9.75938 1.83926 9.02106C0.977221 8.28367 0.547132 7.27568 0.547132 5.99897C0.547132 5.05329 0.836954 4.19966 1.4166 3.43624C1.99624 2.67374 2.77932 2.07676 3.7649 1.6453C4.75048 1.21384 5.85682 0.998108 7.08299 0.998108C8.39184 0.998108 9.53441 1.20175 10.5126 1.60718C11.4898 2.01353 12.2682 2.56959 12.8488 3.27351C13.4284 3.97835 13.8009 4.76224 13.9672 5.62423H11.2836C11.0513 4.86173 10.5757 4.2601 9.85488 3.82027C9.13404 3.38137 8.20234 3.16099 7.05884 3.16099C6.32964 3.16099 5.67104 3.27258 5.08303 3.49668C4.49503 3.72078 4.03522 4.03972 3.70359 4.45445C3.37197 4.86917 3.20662 5.34155 3.20662 5.8725C3.20662 6.3207 3.31438 6.68521 3.52989 6.96697C3.74539 7.24965 4.09281 7.48955 4.57399 7.68855C5.05424 7.88754 5.72492 8.0949 6.58695 8.31063L8.69931 8.85833C10.7531 9.37255 12.2283 10.003 13.1228 10.7488C14.0174 11.4955 14.4651 12.4737 14.4651 13.6844C14.4651 14.7295 14.1669 15.6659 13.5706 16.4954C12.9742 17.3248 12.1456 17.9757 11.0857 18.4481C10.0249 18.9205 8.81542 19.1567 7.45735 19.1567C6.09927 19.1567 4.8025 18.9158 3.71753 18.4351L3.71567 18.437Z" fill="black"/>
<path d="M23.6817 18.5987C23.011 18.9716 22.2112 19.1585 21.2832 19.1585C20.2057 19.1585 19.2452 18.8851 18.4008 18.3375C17.5555 17.7898 16.8885 17.0105 16.3999 15.9988C15.9113 14.9871 15.667 13.8099 15.667 12.4662C15.667 11.1226 15.9113 9.92489 16.3999 8.92156C16.8885 7.91822 17.5555 7.14736 18.4008 6.60803C19.2461 6.06963 20.2066 5.79904 21.2832 5.79904C22.2112 5.79904 23.0101 5.98595 23.6817 6.35883C24.3524 6.7317 24.8781 7.24221 25.2599 7.88847V6.17192H27.7699V23.6359H25.2599V17.0682C24.8781 17.7154 24.3524 18.2249 23.6817 18.5978V18.5987ZM23.5702 16.5093C24.1174 16.103 24.5437 15.5478 24.8503 14.843C25.1568 14.1381 25.3101 13.3468 25.3101 12.4672C25.3101 11.5875 25.1568 10.7962 24.8503 10.0913C24.5437 9.38649 24.1174 8.83508 23.5702 8.43709C23.0231 8.03911 22.4026 7.84011 21.7059 7.84011C21.0092 7.84011 20.3766 8.02702 19.8546 8.3999C19.3325 8.77278 18.9312 9.30745 18.6488 10.0049C18.3664 10.7013 18.2262 11.5224 18.2262 12.4681C18.2262 13.8778 18.5364 15.0057 19.1579 15.851C19.7793 16.6962 20.6283 17.1193 21.705 17.1193C22.4007 17.1193 23.0222 16.9166 23.5693 16.5103L23.5702 16.5093Z" fill="black"/>
<path d="M32.2847 18.6118C31.6465 18.2473 31.1617 17.7209 30.831 17.0319C30.4993 16.3438 30.334 15.5106 30.334 14.5315V6.17285H32.8188V14.233C32.8188 15.1787 33.0093 15.8835 33.3901 16.3475C33.771 16.8125 34.3348 17.044 35.0798 17.044C35.5935 17.044 36.0821 16.911 36.5457 16.646C37.0092 16.381 37.3863 15.9616 37.6761 15.3898C37.966 14.8179 38.1109 14.1084 38.1109 13.2622V6.17285H40.6208V18.7857H38.1601V17.0942C37.8118 17.7907 37.3232 18.3096 36.6934 18.649C36.0635 18.9884 35.3511 19.1585 34.5559 19.1585C33.6772 19.1585 32.9192 18.9763 32.2819 18.6108L32.2847 18.6118Z" fill="black"/>
<path d="M44.7104 18.7234C44.0304 18.45 43.4805 18.0352 43.0578 17.4792C42.6352 16.924 42.4243 16.2229 42.4243 15.3767C42.4243 14.4478 42.6733 13.7104 43.1702 13.1627C43.6672 12.615 44.2766 12.2263 44.9965 11.9939C45.7173 11.7614 46.5496 11.5875 47.4943 11.4713L48.3146 11.3718C49.0103 11.2723 49.5445 11.1607 49.9179 11.0361C50.2904 10.9115 50.5551 10.7376 50.713 10.5135C50.87 10.2894 50.949 9.98719 50.949 9.60501C50.949 9.02477 50.7214 8.56448 50.2653 8.22415C49.8092 7.88475 49.2008 7.71458 48.4391 7.71458C47.6773 7.71458 47.0847 7.85964 46.6128 8.14976C46.1409 8.43988 45.8464 8.80067 45.7303 9.23213H42.9473C43.0969 8.63516 43.395 8.07537 43.8418 7.55278C44.2887 7.03019 44.9017 6.6071 45.6811 6.28444C46.4595 5.96084 47.3792 5.79904 48.44 5.79904C49.5668 5.79904 50.4985 5.95712 51.236 6.27142C51.9727 6.58664 52.5198 7.03856 52.8765 7.62717C53.2323 8.21578 53.4106 8.91691 53.4106 9.72962V15.7496C53.4106 16.2471 53.4478 16.766 53.5221 17.3044C53.5964 17.8437 53.6921 18.3365 53.8082 18.7847H51.3233C51.2899 18.5857 51.249 18.3951 51.1989 18.2129C51.1654 17.9478 51.1403 17.7526 51.1246 17.628C51.1078 17.5034 51.0828 17.3174 51.0502 17.0682C50.7186 17.5991 50.2049 18.0752 49.5092 18.4983C48.8134 18.9214 47.9439 19.1325 46.8998 19.1325C46.1205 19.1325 45.3922 18.9958 44.7132 18.7224L44.7104 18.7234ZM49.2834 16.646C49.8139 16.3308 50.2235 15.8993 50.5133 15.3526C50.8031 14.8049 50.9481 14.1921 50.9481 13.5114V12.0431C50.7326 12.3416 50.4176 12.5741 50.0034 12.7396C49.5891 12.9061 48.9592 13.0548 48.1149 13.1878C47.0373 13.3543 46.2635 13.5737 45.7916 13.8471C45.3198 14.1205 45.0838 14.5891 45.0838 15.2531C45.0838 15.85 45.3077 16.3103 45.7545 16.6339C46.2022 16.9575 46.7735 17.1193 47.4693 17.1193C48.165 17.1193 48.753 16.9622 49.2834 16.6469V16.646Z" fill="black"/>
<path d="M55.9726 6.17285H58.4333V8.61098C58.7974 7.58254 59.3734 6.8405 60.1602 6.38486C60.947 5.92923 61.8629 5.73395 62.906 5.79997V8.2381C62.4258 8.20463 61.9948 8.20928 61.6139 8.25019C61.2331 8.29203 60.8847 8.37107 60.5698 8.48638C59.8573 8.75232 59.3316 9.22005 58.9916 9.89235C58.6516 10.5637 58.4816 11.4313 58.4816 12.4923V18.7866H55.9717V6.17285H55.9726Z" fill="black"/>
<path d="M66.1648 18.3375C65.2034 17.7898 64.4584 17.0152 63.928 16.0118C63.3976 15.0085 63.1328 13.835 63.1328 12.4913C63.1328 11.1477 63.4143 10.0411 63.9781 9.02105C64.541 8.00098 65.2907 7.20966 66.227 6.64523C67.1625 6.08172 68.1861 5.79904 69.2962 5.79904C70.5391 5.79904 71.624 6.08916 72.552 6.6694C73.48 7.25057 74.1925 8.09583 74.6895 9.20703C75.1864 10.3182 75.4428 11.6368 75.4595 13.1627H64.5494V11.1728H73.8934L73.0239 12.1677C73.0072 10.8408 72.6719 9.79192 72.017 9.02105C71.3621 8.25019 70.4722 7.86429 69.3454 7.86429C68.6497 7.86429 68.0282 8.03446 67.4811 8.37479C66.9339 8.71512 66.4992 9.19587 66.1759 9.81795C65.8527 10.44 65.691 11.1328 65.691 11.8953V12.8159C65.691 13.6621 65.8564 14.4078 66.188 15.055C66.5196 15.7022 66.9748 16.208 67.5545 16.5726C68.1341 16.9371 68.8048 17.1202 69.5674 17.1202C70.3301 17.1202 70.9255 16.9752 71.4067 16.6851C71.8869 16.3949 72.2427 16.0091 72.4749 15.5283H75.1586C74.8437 16.607 74.1934 17.481 73.2078 18.1533C72.2223 18.8247 70.9915 19.1604 69.5173 19.1604C68.2409 19.1604 67.1225 18.887 66.162 18.3393L66.1648 18.3375Z" fill="black"/>
</g>
<defs>
<clipPath id="clip0_602_14267">
<rect width="136" height="27.25" fill="white" transform="translate(0 0.998108)"/>
</clipPath>
</defs>
</svg>
