<svg width="56" height="21" viewBox="0 0 56 21" fill="none" xmlns="http://www.w3.org/2000/svg">
<g clip-path="url(#clip0_604_15080)">
<path d="M4.00114 19.5268C2.83281 19.0076 1.90955 18.2776 1.23135 17.3376C0.553158 16.3977 0.143041 15.3182 0 14.1001H2.97085C3.20292 15.3001 3.75607 16.232 4.63032 16.8938C5.50457 17.5566 6.6639 17.8879 8.10932 17.8879C9.01958 17.8879 9.8128 17.7534 10.491 17.4853C11.1692 17.2161 11.6953 16.8446 12.0694 16.3706C12.4446 15.8966 12.6316 15.3634 12.6316 14.7719C12.6316 14.0379 12.3455 13.4514 11.7754 13.0126C11.2042 12.5738 10.1959 12.1841 8.7515 11.8437L6.36982 11.2794C4.37125 10.7954 2.90883 10.1557 1.98057 9.35836C1.0523 8.56204 0.589168 7.4735 0.589168 6.09474C0.589168 5.07348 0.901258 4.15164 1.52544 3.3272C2.14961 2.50376 2.99286 1.85907 4.05416 1.39313C5.11546 0.927186 6.3068 0.694214 7.62718 0.694214C9.03658 0.694214 10.2669 0.914131 11.3202 1.35196C12.3725 1.79079 13.2108 2.39129 13.836 3.15146C14.4601 3.91264 14.8612 4.75917 15.0403 5.69005H12.1505C11.9004 4.86662 11.3883 4.21691 10.612 3.74193C9.83581 3.26795 8.83252 3.02996 7.60117 3.02996C6.81595 3.02996 6.10675 3.15046 5.47356 3.39247C4.84038 3.63448 4.34524 3.97892 3.98814 4.42678C3.63104 4.87465 3.45299 5.38478 3.45299 5.95817C3.45299 6.44219 3.56902 6.83583 3.80109 7.1401C4.03315 7.44538 4.40726 7.70446 4.92541 7.91935C5.44256 8.13425 6.16476 8.35819 7.09303 8.59116L9.36768 9.18262C11.5793 9.73794 13.1678 10.4188 14.131 11.2241C15.0943 12.0305 15.5765 13.0869 15.5765 14.3944C15.5765 15.5231 15.2554 16.5343 14.6132 17.43C13.971 18.3258 13.0787 19.0287 11.9374 19.5388C10.7951 20.049 9.49271 20.304 8.03029 20.304C6.56788 20.304 5.17148 20.0439 4.00314 19.5248L4.00114 19.5268Z" fill="#0B1E2E"/>
<path d="M39.7339 1.0968H51.3212V3.64945H42.5437V9.26488H49.9838V11.7362H42.5437V19.9033H39.7339V1.0968Z" fill="#0B1E2E"/>
<path d="M53.1899 1.0968H55.9997V19.9033H53.1899V1.0968Z" fill="#0B1E2E"/>
<path d="M28.8187 1.0968H26.1299V3.79606H28.8187V1.0968Z" fill="#4D4DCB"/>
<path d="M31.5066 3.79614H28.8179V6.4954H31.5066V3.79614Z" fill="#4D4DCB"/>
<path d="M34.1958 9.1945V6.49524H31.5071V9.1945H18.0532V11.8938H20.742H23.4308H26.1195H28.8073H28.8113H31.4931V14.5719H28.8113V17.2712H31.5001V14.579H34.1818V11.8938H34.1958H36.8566V9.1945H34.1958Z" fill="#4D4DCB"/>
<path d="M28.8084 17.2743H26.1196V19.9736H28.8084V17.2743Z" fill="#4D4DCB"/>
</g>
<defs>
<clipPath id="clip0_604_15080">
<rect width="56" height="19.6118" fill="white" transform="translate(0 0.694214)"/>
</clipPath>
</defs>
</svg>
